<?xml version="1.0" encoding="UTF-8"?>
<svg id="Camada_1" xmlns="http://www.w3.org/2000/svg" version="1.1" xmlns:xlink="http://www.w3.org/1999/xlink" viewBox="0 0 1000 1000">
  <!-- Generator: Adobe Illustrator 30.2.1, SVG Export Plug-In . SVG Version: 2.1.1 Build 1)  -->
  <defs>
    <style>
      .st0 {
        fill: url(#Gradiente_sem_nome_4410);
      }

      .st1 {
        fill: url(#Gradiente_sem_nome_442);
      }

      .st2 {
        fill: url(#Gradiente_sem_nome_447);
      }

      .st3 {
        clip-path: url(#clippath-6);
      }

      .st4 {
        clip-path: url(#clippath-7);
      }

      .st5 {
        fill: url(#Gradiente_sem_nome_4412);
      }

      .st6 {
        clip-path: url(#clippath-4);
      }

      .st7 {
        fill: url(#Gradiente_sem_nome_4413);
      }

      .st8 {
        clip-path: url(#clippath-9);
      }

      .st9 {
        clip-path: url(#clippath-10);
      }

      .st10 {
        fill: url(#Gradiente_sem_nome_444);
      }

      .st11 {
        clip-path: url(#clippath-11);
      }

      .st12 {
        fill: url(#Gradiente_sem_nome_448);
      }

      .st13 {
        fill: none;
      }

      .st14 {
        clip-path: url(#clippath-1);
      }

      .st15 {
        fill: url(#Gradiente_sem_nome_443);
      }

      .st16 {
        fill: url(#Gradiente_sem_nome_441);
      }

      .st17 {
        clip-path: url(#clippath-5);
      }

      .st18 {
        clip-path: url(#clippath-8);
      }

      .st19 {
        fill: url(#Gradiente_sem_nome_4411);
      }

      .st20 {
        clip-path: url(#clippath-3);
      }

      .st21 {
        clip-path: url(#clippath-12);
      }

      .st22 {
        fill: #111316;
      }

      .st23 {
        clip-path: url(#clippath-2);
      }

      .st24 {
        fill: url(#Gradiente_sem_nome_445);
      }

      .st25 {
        clip-path: url(#clippath-13);
      }

      .st26 {
        fill: url(#Gradiente_sem_nome_449);
      }

      .st27 {
        fill: url(#Gradiente_sem_nome_446);
      }

      .st28 {
        fill: url(#Gradiente_sem_nome_44);
      }

      .st29 {
        clip-path: url(#clippath);
      }
    </style>
    <clipPath id="clippath">
      <path class="st13" d="M899.14,437.73l-35.39,53.75c-10.84,16.93-33.27,22.77-50.5,12.44-12.11-7.26-18.51-20.31-17.93-33.4.06-1.33-.58-2.65-1.78-3.24-2.13-1.05-4.58.44-4.68,2.74-.73,14.81,5.88,29.58,18.93,38.38,20.36,13.73,48.02,7.92,61.19-12.65l35.81-54.41c1-1.56.55-3.64-1.01-4.64-.56-.36-1.19-.53-1.81-.53-1.11,0-2.19.55-2.83,1.55"/>
    </clipPath>
    <linearGradient id="Gradiente_sem_nome_44" data-name="Gradiente sem nome 44" x1="-176.22" y1="872.18" x2="-172.46" y2="872.18" gradientTransform="translate(7249.33 32628.36) scale(36.86 -36.86)" gradientUnits="userSpaceOnUse">
      <stop offset="0" stop-color="#95c241"/>
      <stop offset=".2" stop-color="#9bc444"/>
      <stop offset=".47" stop-color="#accb4e"/>
      <stop offset=".73" stop-color="#c3d55c"/>
      <stop offset="1" stop-color="#c3d55c"/>
    </linearGradient>
    <clipPath id="clippath-1">
      <path class="st13" d="M818.66,412.68l-22.77,35.3c-1.64,2.55-2.98,5.22-4.04,7.97-.65,1.67.22,3.54,1.89,4.18l.03.02c1.7.66,3.56-.21,4.25-1.89.83-2.05,1.86-4.04,3.09-5.97l23.14-35.88c.88-1.37.76-3.21-.42-4.34-.68-.64-1.51-.94-2.33-.94-1.11,0-2.19.55-2.83,1.55"/>
    </clipPath>
    <linearGradient id="Gradiente_sem_nome_441" data-name="Gradiente sem nome 44" x1="-176.22" y1="873.41" x2="-172.46" y2="873.41" gradientTransform="translate(7206.15 32630.41) scale(36.86 -36.86)" xlink:href="#Gradiente_sem_nome_44"/>
    <clipPath id="clippath-2">
      <path class="st13" d="M853.52,407.87l-35.17,54.88c-4.88,7.62-3,18.38,4.52,23.41,2.16,1.45,4.54,2.33,6.95,2.67,2.56.36,4.52-2.24,3.54-4.63-.45-1.11-1.46-1.89-2.65-2.05-1.15-.15-2.28-.52-3.35-1.11-5.14-2.85-6.75-9.39-3.63-14.26l35.37-55.19c.88-1.37.76-3.21-.42-4.33-.68-.64-1.51-.94-2.34-.94-1.11,0-2.19.55-2.83,1.55"/>
    </clipPath>
    <linearGradient id="Gradiente_sem_nome_442" data-name="Gradiente sem nome 44" x1="-176.22" y1="872.87" x2="-172.46" y2="872.87" gradientTransform="translate(7223.46 32622.35) scale(36.86 -36.86)" xlink:href="#Gradiente_sem_nome_44"/>
    <clipPath id="clippath-3">
      <path class="st13" d="M884.3,409.5l-43.13,67.17c-.23.35-.48.7-.74,1.02-.79.96-.99,2.27-.52,3.42.98,2.37,4.17,2.85,5.76.84.35-.43.67-.89.97-1.37l43.32-67.46c1-1.56.55-3.64-1.02-4.63-.56-.36-1.19-.53-1.81-.53-1.11,0-2.19.55-2.83,1.55"/>
    </clipPath>
    <linearGradient id="Gradiente_sem_nome_443" data-name="Gradiente sem nome 44" x1="-176.22" y1="872.45" x2="-172.46" y2="872.45" gradientTransform="translate(7230.97 32605.03) scale(36.86 -36.86)" xlink:href="#Gradiente_sem_nome_44"/>
    <clipPath id="clippath-4">
      <path class="st13" d="M798.09,419.78l-13.43,20.83c-16.86,26.33-10.15,61.72,15.85,79.07,12.52,8.36,27.13,11.08,40.87,8.84,2.04-.33,3.33-2.4,2.76-4.4-.48-1.71-2.18-2.77-3.94-2.47-12.11,2.05-24.94-.22-35.87-7.5-22.8-15.16-29.35-45.97-14.53-69.11l13.89-21.54c.88-1.37.75-3.21-.42-4.33-.68-.64-1.51-.95-2.33-.95-1.11,0-2.19.55-2.83,1.55"/>
    </clipPath>
    <linearGradient id="Gradiente_sem_nome_444" data-name="Gradiente sem nome 44" x1="-176.22" y1="872.98" x2="-172.46" y2="872.98" gradientTransform="translate(7233.4 32653.06) scale(36.86 -36.86)" xlink:href="#Gradiente_sem_nome_44"/>
    <clipPath id="clippath-5">
      <path class="st13" d="M896.3,465.85l-21.18,32.77c-5.6,8.75-13.5,15.27-22.41,19.24-1.53.68-2.54,2.27-2.24,3.91.41,2.24,2.79,3.53,4.82,2.62,9.93-4.37,18.73-11.6,25-21.41l21.55-33.37c.89-1.4.79-3.31-.44-4.43-.67-.61-1.49-.9-2.29-.9-1.11,0-2.19.55-2.83,1.55"/>
    </clipPath>
    <linearGradient id="Gradiente_sem_nome_445" data-name="Gradiente sem nome 44" x1="-176.22" y1="871.63" x2="-172.46" y2="871.63" gradientTransform="translate(7269.73 32623.71) scale(36.86 -36.86)" xlink:href="#Gradiente_sem_nome_44"/>
    <clipPath id="clippath-6">
      <path class="st13" d="M893.16,495.77l-6.68,10.04c-13.22,20.65-36.86,31.51-59.98,29.71-1.7-.13-3.21,1.04-3.52,2.71-.37,1.96,1.05,3.81,3.03,3.97,25.52,1.95,51.58-10.05,66.19-32.86l6.72-10.11c1.03-1.61.52-3.77-1.17-4.73-.49-.28-1.03-.41-1.57-.41-1.18,0-2.34.63-3.02,1.68"/>
    </clipPath>
    <linearGradient id="Gradiente_sem_nome_446" data-name="Gradiente sem nome 44" x1="-176.22" y1="871.51" x2="-172.46" y2="871.51" gradientTransform="translate(7282.56 32643.5) scale(36.86 -36.86)" xlink:href="#Gradiente_sem_nome_44"/>
    <clipPath id="clippath-7">
      <path class="st13" d="M769.38,440.22c-1.54,3.02-2.84,6.1-3.9,9.23-.64,1.86.49,3.88,2.41,4.33,1.67.4,3.38-.54,3.93-2.17.94-2.77,2.09-5.5,3.44-8.17.73-1.44.49-3.24-.75-4.26-.64-.53-1.4-.77-2.15-.77-1.21,0-2.39.65-2.99,1.81"/>
    </clipPath>
    <linearGradient id="Gradiente_sem_nome_447" data-name="Gradiente sem nome 44" x1="-176.22" y1="873.81" x2="-172.46" y2="873.81" gradientTransform="translate(7202.06 32655.53) scale(36.86 -36.86)" xlink:href="#Gradiente_sem_nome_44"/>
    <clipPath id="clippath-8">
      <path class="st13" d="M762.3,463.16c-3.36,26.22,8.19,53.28,31.89,68.45,5.69,3.65,11.74,6.32,17.95,8.1,2.03.59,4.12-.86,4.26-3.03.1-1.61-1.05-3.02-2.6-3.47-5.5-1.6-10.85-3.97-15.89-7.19-21.52-13.72-32.01-38.26-28.96-62.03.21-1.69-.89-3.27-2.55-3.66-.26-.06-.52-.09-.77-.09-1.65,0-3.11,1.21-3.33,2.92"/>
    </clipPath>
    <linearGradient id="Gradiente_sem_nome_448" data-name="Gradiente sem nome 44" x1="-176.22" y1="872.83" x2="-172.46" y2="872.83" gradientTransform="translate(7246.35 32673.22) scale(36.86 -36.86)" xlink:href="#Gradiente_sem_nome_44"/>
    <clipPath id="clippath-9">
      <path class="st13" d="M869.39,408.24l-8.95,13.74c-.96,1.49-.59,3.48.85,4.52,1.56,1.14,3.76.73,4.8-.9l8.95-13.74c1-1.56.55-3.64-1.01-4.64-.56-.36-1.19-.53-1.82-.53-1.11,0-2.19.55-2.83,1.55"/>
    </clipPath>
    <linearGradient id="Gradiente_sem_nome_449" data-name="Gradiente sem nome 44" x1="-176.22" y1="872.81" x2="-172.46" y2="872.81" gradientTransform="translate(7210.94 32589.53) scale(36.86 -36.86)" xlink:href="#Gradiente_sem_nome_44"/>
    <clipPath id="clippath-10">
      <path class="st13" d="M853.19,433.3l-23.72,36.99c-.87,1.37-.76,3.21.42,4.33,1.58,1.51,4.05,1.15,5.17-.6l23.79-37.1c.95-1.49.58-3.48-.85-4.53-.6-.44-1.29-.64-1.97-.64-1.11,0-2.19.54-2.83,1.55"/>
    </clipPath>
    <linearGradient id="Gradiente_sem_nome_4410" data-name="Gradiente sem nome 44" x1="-176.22" y1="872.64" x2="-172.46" y2="872.64" gradientTransform="translate(7230.3 32620.12) scale(36.86 -36.86)" xlink:href="#Gradiente_sem_nome_44"/>
    <clipPath id="clippath-11">
      <path class="st13" d="M836.31,409.83l-29.2,45.54c-7.62,11.9-6.23,27.36,2.93,37.36.68.74,1.39,1.45,2.15,2.12.34.3,1.03.83,1.83,1.39,1.75,1.27,4.22.56,5.03-1.44.57-1.39.06-3.04-1.14-3.95-9.59-7.34-12.13-20.97-5.5-31.32l29.54-46.07c1-1.56.55-3.65-1.02-4.64-.56-.36-1.19-.53-1.81-.53-1.1,0-2.18.54-2.82,1.54"/>
    </clipPath>
    <linearGradient id="Gradiente_sem_nome_4411" data-name="Gradiente sem nome 44" x1="-176.22" y1="873.02" x2="-172.46" y2="873.02" gradientTransform="translate(7222.41 32633.02) scale(36.86 -36.86)" xlink:href="#Gradiente_sem_nome_44"/>
    <clipPath id="clippath-12">
      <path class="st13" d="M899.96,410.37l-33.45,52c-.96,1.5-.59,3.49.85,4.53,1.56,1.14,3.76.72,4.8-.9l33.45-52.01c1-1.56.55-3.63-1.01-4.64-.56-.36-1.19-.53-1.81-.53-1.11,0-2.19.55-2.83,1.55"/>
    </clipPath>
    <linearGradient id="Gradiente_sem_nome_4412" data-name="Gradiente sem nome 44" x1="-176.22" y1="872.25" x2="-172.46" y2="872.25" gradientTransform="translate(7231.95 32590.29) scale(36.86 -36.86)" xlink:href="#Gradiente_sem_nome_44"/>
    <clipPath id="clippath-13">
      <path class="st13" d="M859.23,473.69l-6.9,10.72c-5.17,8.08-14.49,12.22-23.47,11.01-1.15-.16-2.33.21-3.06,1.11-1.79,2.2-.45,5.22,2.06,5.58,11.39,1.64,23.22-3.3,29.82-13.6l7.2-11.2c.97-1.5.59-3.49-.85-4.53-.59-.44-1.29-.65-1.97-.65-1.1,0-2.18.54-2.83,1.55"/>
    </clipPath>
    <linearGradient id="Gradiente_sem_nome_4413" data-name="Gradiente sem nome 44" x1="-176.22" y1="872.17" x2="-172.46" y2="872.17" gradientTransform="translate(7255.11 32636.85) scale(36.86 -36.86)" xlink:href="#Gradiente_sem_nome_44"/>
  </defs>
  <g>
    <path class="st22" d="M688.72,425.18c-36.16-2.43-59.71,22.7-61.69,49.52-1.85,25.11,9.86,50,52.48,50.2,20.06.09,38.66-11.8,46.64-28.85,1.7-3.39,3.19-7.03,4.2-10.77,8.75-37.76-13.37-58.2-41.63-60.1M706.74,485.28c-1.26,3.88-2.75,6.79-5.95,10.66-2.12,2.52-4.59,4.66-7.39,6.39-4.91,3.03-10.52,4.57-16.65,4.57-8.13,0-14.72-2.77-19.58-8.23-3.28-3.68-5.4-8.18-6.4-13.39-.57-2.49-1.23-4.87-.81-10.42.32-4.49,1.55-7.79,2.41-10.5.53-1.44,1.14-2.84,1.83-4.19,2.78-5.34,6.67-9.58,11.55-12.6,4.9-3.03,10.5-4.57,16.65-4.57,8,0,14.55,2.76,19.46,8.2,3.28,3.63,5.42,8.05,6.46,13.16.78,4.18,1.1,11.72-1.57,20.92"/>
    <path class="st22" d="M550.4,485.28c8.75-37.76-13.36-58.2-41.63-60.1-36.15-2.42-59.71,22.7-61.69,49.52-1.85,25.11,9.86,50,52.48,50.2,20.06.09,38.66-11.8,46.64-28.85l-25.37-.11c-2.12,2.52-4.59,4.66-7.39,6.4-4.92,3.03-10.52,4.56-16.65,4.56-8.13,0-14.72-2.77-19.58-8.23-3.27-3.68-5.39-8.18-6.4-13.39h79.59ZM472.41,464.35c.52-1.44,1.13-2.84,1.83-4.19,2.78-5.34,6.67-9.58,11.55-12.6,4.9-3.03,10.5-4.57,16.65-4.57,8,0,14.54,2.76,19.46,8.2,3.28,3.63,5.42,8.05,6.46,13.16h-55.95Z"/>
    <path class="st22" d="M550.9,524.86h11.33c5.71,0,10.63-4.05,11.73-9.65l21.4-109.1h-21.17l-23.29,118.75Z"/>
    <path class="st22" d="M586.13,524.86h11.33c5.72,0,10.63-4.05,11.73-9.65l21.4-109.1h-21.17l-23.29,118.75Z"/>
    <path class="st22" d="M433.91,446.07c-3.89-6.74-9.45-12-16.67-15.77-7.23-3.76-15.7-5.65-25.42-5.65-11.18,0-21.14,2.32-29.89,6.93-8.75,4.62-15.61,11.09-20.59,19.41-2.87,4.79-4.88,9.98-6.1,15.54h-.03l-.21,1.11c-.04.21-.09.42-.12.64l-14.36,74.05h11.31c5.72,0,10.64-4.06,11.74-9.68l3.85-19.85c2.66,2.41,5.67,4.5,9.06,6.26,7.29,3.77,15.73,5.66,25.33,5.66,11.18,0,21.14-2.31,29.89-6.93,8.75-4.61,15.61-11.11,20.59-19.5,4.98-8.38,7.47-17.92,7.47-28.61,0-8.99-1.94-16.86-5.83-23.6M412.18,489.73c-2.78,5.35-6.67,9.59-11.55,12.61-4.91,3.03-10.51,4.56-16.65,4.56-8.14,0-14.72-2.77-19.58-8.23-4.7-5.29-7.09-12.23-7.09-20.62,0-6.61,1.38-12.63,4.12-17.88,2.77-5.34,6.66-9.58,11.55-12.6,4.9-3.03,10.5-4.57,16.65-4.57,8,0,14.54,2.76,19.46,8.2,4.78,5.31,7.21,12.25,7.21,20.65,0,6.61-1.38,12.62-4.11,17.88"/>
    <path class="st22" d="M207.26,446.07c-3.89-6.74-9.44-12-16.67-15.77-7.23-3.76-15.71-5.65-25.42-5.65-11.18,0-21.14,2.32-29.89,6.93-8.75,4.62-15.62,11.09-20.59,19.41-2.87,4.79-4.88,9.98-6.09,15.54h-.04l-.21,1.11c-.05.21-.09.42-.13.64l-14.36,74.05h11.31c5.72,0,10.64-4.06,11.74-9.67l3.85-19.85c2.66,2.41,5.67,4.5,9.06,6.26,7.29,3.77,15.73,5.66,25.33,5.66,11.18,0,21.14-2.31,29.89-6.93,8.75-4.61,15.62-11.11,20.59-19.5,4.98-8.38,7.47-17.92,7.47-28.61,0-8.99-1.94-16.86-5.84-23.6M185.54,489.73c-2.78,5.35-6.67,9.59-11.55,12.61-4.91,3.03-10.52,4.56-16.65,4.56-8.14,0-14.72-2.77-19.58-8.23-4.7-5.29-7.09-12.23-7.09-20.62,0-6.61,1.38-12.63,4.12-17.88,2.77-5.34,6.66-9.58,11.55-12.6,4.9-3.03,10.5-4.57,16.65-4.57,8,0,14.54,2.76,19.46,8.2,4.78,5.31,7.2,12.25,7.2,20.65,0,6.61-1.38,12.62-4.11,17.88"/>
    <path class="st22" d="M323.93,485.28c.71-3.37,1.99-10.61,1.94-14.19-.45-27.88-16.51-43.91-43.57-45.92-36.14-2.67-59.71,22.7-61.69,49.52-1.85,25.11,9.86,50,52.48,50.2,8.11.04,15.97-1.91,23-5.35l-1,5.15h11.33c5.73,0,10.65-4.06,11.74-9.69l5.73-29.7.04-.03ZM286.98,502.33c-4.91,3.03-10.51,4.57-16.65,4.57-8.13,0-14.72-2.77-19.58-8.23-.03-.04-.06-.08-.09-.12-.7-.79-1.33-1.63-1.92-2.5-.16-.23-.3-.46-.45-.7-.54-.84-1.03-1.71-1.48-2.62-.04-.09-.09-.17-.13-.26-1.99-4.17-3.01-8.99-3.01-14.43,0-6.61,1.39-12.63,4.12-17.88,2.78-5.34,6.67-9.58,11.55-12.6,4.9-3.03,10.5-4.57,16.65-4.57,8,0,14.54,2.76,19.46,8.2,4.78,5.31,7.21,12.25,7.21,20.65,0,4.82-.74,9.31-2.2,13.44h0s-.01.02-.02.04c-.54,1.52-1.17,2.99-1.9,4.4-1,1.93-2.15,3.71-3.44,5.34-3.32,4.55-6.26,6.13-8.11,7.27"/>
    <g class="st29">
      <rect class="st28" x="775.25" y="406.93" width="143.45" height="144.44" transform="translate(-84.76 759.92) rotate(-46.27)"/>
    </g>
    <g class="st14">
      <rect class="st16" x="778.5" y="406.54" width="59.34" height="58.85" transform="translate(-65.53 718.55) rotate(-46.27)"/>
    </g>
    <g class="st23">
      <rect class="st1" x="790.7" y="402.3" width="92.04" height="90.91" transform="translate(-65.23 742.82) rotate(-46.27)"/>
    </g>
    <g class="st20">
      <rect class="st15" x="819.92" y="401.07" width="90.54" height="89.77" transform="translate(-55.15 762.84) rotate(-46.27)"/>
    </g>
    <g class="st6">
      <rect class="st10" x="739.01" y="407.82" width="134.48" height="133.37" transform="translate(-93.97 729.06) rotate(-46.27)"/>
    </g>
    <g class="st17">
      <rect class="st24" x="836.25" y="454.73" width="80.43" height="80.16" transform="translate(-86.97 786.06) rotate(-46.27)"/>
    </g>
    <g class="st3">
      <rect class="st27" x="816.46" y="473.87" width="89.64" height="90.49" transform="translate(-109.21 782.59) rotate(-46.27)"/>
    </g>
    <g class="st4">
      <rect class="st2" x="760.86" y="436.81" width="19.1" height="18.96" transform="translate(-84.65 694.45) rotate(-46.27)"/>
    </g>
    <g class="st18">
      <rect class="st12" x="738.91" y="451.8" width="97.64" height="96.93" transform="translate(-118.3 723.63) rotate(-46.27)"/>
    </g>
    <g class="st8">
      <rect class="st26" x="854.48" y="403.94" width="26.58" height="26.44" transform="translate(-33.55 755.81) rotate(-46.27)"/>
    </g>
    <g class="st9">
      <rect class="st0" x="817.38" y="427.33" width="53.64" height="53.23" transform="translate(-67.4 750.13) rotate(-46.27)"/>
    </g>
    <g class="st11">
      <rect class="st19" x="773.97" y="406.36" width="94.52" height="93.09" transform="translate(-73.74 733.21) rotate(-46.27)"/>
    </g>
    <g class="st21">
      <rect class="st5" x="850.49" y="403.12" width="71.18" height="70.61" transform="translate(-43.26 775.6) rotate(-46.27)"/>
    </g>
    <g class="st25">
      <rect class="st7" x="819.04" y="461.91" width="51.77" height="52.09" transform="translate(-91.75 761.15) rotate(-46.27)"/>
    </g>
  </g>
  <g>
    <path class="st22" d="M252.67,572.33c0,7.44-5.26,12.56-12.23,12.56-4.36,0-8.06-2.13-10.05-5.83v14.83h-2.37v-33.93h2.27v5.83c1.94-3.79,5.69-6.02,10.14-6.02,6.97,0,12.23,5.16,12.23,12.56ZM250.3,572.33c0-6.21-4.31-10.43-10-10.43s-9.95,4.22-9.95,10.43,4.27,10.43,9.95,10.43,10-4.22,10-10.43Z"/>
    <path class="st22" d="M280.92,572.9h-21.28c.24,5.88,4.55,9.86,10.47,9.86,3.13,0,6.02-1.14,7.92-3.46l1.37,1.56c-2.18,2.65-5.59,4.03-9.34,4.03-7.49,0-12.75-5.21-12.75-12.56s5.07-12.56,11.85-12.56,11.8,5.12,11.8,12.46c0,.19-.05.43-.05.66ZM259.69,571.05h18.95c-.33-5.36-4.22-9.19-9.48-9.19s-9.1,3.79-9.48,9.19Z"/>
    <path class="st22" d="M310.46,570.24v14.45h-2.37v-14.27c0-5.59-2.99-8.53-8.01-8.53-5.83,0-9.38,3.74-9.38,9.62v13.17h-2.37v-24.74h2.28v5.36c1.66-3.46,5.12-5.54,9.81-5.54,6.02,0,10.05,3.55,10.05,10.47Z"/>
    <path class="st22" d="M316.59,581.71l1.09-1.9c1.89,1.61,5.26,2.99,8.91,2.99,5.21,0,7.3-1.85,7.3-4.64,0-7.2-16.4-1.9-16.4-11.61,0-3.74,3.13-6.78,9.39-6.78,3.13,0,6.54.95,8.48,2.42l-1.09,1.9c-2.09-1.52-4.78-2.23-7.44-2.23-4.84,0-6.97,1.99-6.97,4.64,0,7.44,16.4,2.18,16.4,11.61,0,4.03-3.46,6.78-9.76,6.78-4.07,0-7.96-1.37-9.9-3.17Z"/>
    <path class="st22" d="M340.2,572.33c0-7.35,5.26-12.56,12.37-12.56s12.37,5.21,12.37,12.56-5.26,12.56-12.37,12.56-12.37-5.21-12.37-12.56ZM362.52,572.33c0-6.21-4.27-10.43-9.95-10.43s-9.95,4.22-9.95,10.43,4.27,10.43,9.95,10.43,9.95-4.22,9.95-10.43Z"/>
    <path class="st22" d="M393.95,559.96v24.74h-2.28v-5.31c-1.61,3.46-4.98,5.5-9.33,5.5-6.3,0-10.33-3.55-10.33-10.47v-14.45h2.37v14.26c0,5.59,2.99,8.53,8.15,8.53,5.59,0,9.05-3.75,9.05-9.62v-13.17h2.37Z"/>
    <path class="st22" d="M405.72,582.85c0,.71-.14,1.19-.43,2.18l-1.85,6.44h-1.71l1.56-6.68c-.95-.24-1.56-.95-1.56-1.94,0-1.14.86-1.99,1.99-1.99s1.99.95,1.99,1.99Z"/>
    <path class="st22" d="M450.32,572.33c0,7.44-5.26,12.56-12.23,12.56-4.36,0-8.06-2.13-10.05-5.83v14.83h-2.37v-33.93h2.28v5.83c1.94-3.79,5.69-6.02,10.14-6.02,6.97,0,12.23,5.16,12.23,12.56ZM447.95,572.33c0-6.21-4.31-10.43-10-10.43s-9.95,4.22-9.95,10.43,4.26,10.43,9.95,10.43,10-4.22,10-10.43Z"/>
    <path class="st22" d="M478.58,572.9h-21.28c.24,5.88,4.55,9.86,10.47,9.86,3.13,0,6.02-1.14,7.91-3.46l1.37,1.56c-2.18,2.65-5.59,4.03-9.33,4.03-7.49,0-12.75-5.21-12.75-12.56s5.07-12.56,11.85-12.56,11.8,5.12,11.8,12.46c0,.19-.05.43-.05.66ZM457.35,571.05h18.96c-.33-5.36-4.22-9.19-9.48-9.19s-9.1,3.79-9.48,9.19Z"/>
    <path class="st22" d="M497.69,559.77v2.32c-.19,0-.38-.05-.57-.05-5.5,0-8.77,3.65-8.77,9.76v12.89h-2.37v-24.74h2.27v5.4c1.52-3.6,4.79-5.59,9.43-5.59Z"/>
    <path class="st22" d="M500.83,581.71l1.09-1.9c1.9,1.61,5.26,2.99,8.91,2.99,5.21,0,7.3-1.85,7.3-4.64,0-7.2-16.4-1.9-16.4-11.61,0-3.74,3.13-6.78,9.38-6.78,3.13,0,6.54.95,8.48,2.42l-1.09,1.9c-2.09-1.52-4.79-2.23-7.44-2.23-4.83,0-6.97,1.99-6.97,4.64,0,7.44,16.4,2.18,16.4,11.61,0,4.03-3.46,6.78-9.76,6.78-4.08,0-7.96-1.37-9.9-3.17Z"/>
    <path class="st22" d="M524.44,572.33c0-7.35,5.26-12.56,12.37-12.56s12.37,5.21,12.37,12.56-5.26,12.56-12.37,12.56-12.37-5.21-12.37-12.56ZM546.76,572.33c0-6.21-4.27-10.43-9.95-10.43s-9.95,4.22-9.95,10.43,4.26,10.43,9.95,10.43,9.95-4.22,9.95-10.43Z"/>
    <path class="st22" d="M578.66,570.24v14.45h-2.37v-14.27c0-5.59-2.99-8.53-8.01-8.53-5.83,0-9.38,3.74-9.38,9.62v13.17h-2.37v-24.74h2.28v5.36c1.66-3.46,5.12-5.54,9.81-5.54,6.02,0,10.05,3.55,10.05,10.47Z"/>
    <path class="st22" d="M606.3,569.01v15.69h-2.27v-4.41c-1.56,2.84-4.6,4.6-8.91,4.6-5.54,0-8.91-2.84-8.91-7.06,0-3.74,2.37-6.92,9.24-6.92h8.48v-1.99c0-4.6-2.51-7.06-7.34-7.06-3.41,0-6.49,1.28-8.53,3.13l-1.19-1.71c2.46-2.18,6.07-3.51,9.9-3.51,6.11,0,9.52,3.13,9.52,9.24ZM603.93,577.4v-4.64h-8.43c-5.12,0-6.92,2.13-6.92,4.98,0,3.22,2.51,5.21,6.87,5.21s7.06-1.99,8.48-5.54Z"/>
    <path class="st22" d="M616.08,549.53h2.37v35.16h-2.37v-35.16Z"/>
    <path class="st22" d="M627.69,552.04c0-1.04.85-1.94,1.94-1.94s1.94.85,1.94,1.89-.85,1.94-1.94,1.94-1.94-.85-1.94-1.9ZM628.45,559.96h2.37v24.74h-2.37v-24.74Z"/>
    <path class="st22" d="M657.55,582.66v2.04h-19.67v-1.61l16.3-21.09h-16.06v-2.04h19.15v1.61l-16.35,21.09h16.63Z"/>
    <path class="st22" d="M661.59,572.33c0-7.35,5.26-12.56,12.37-12.56s12.37,5.21,12.37,12.56-5.26,12.56-12.37,12.56-12.37-5.21-12.37-12.56ZM683.91,572.33c0-6.21-4.27-10.43-9.95-10.43s-9.95,4.22-9.95,10.43,4.26,10.43,9.95,10.43,9.95-4.22,9.95-10.43Z"/>
    <path class="st22" d="M715.34,559.96v24.74h-2.27v-5.31c-1.61,3.46-4.98,5.5-9.34,5.5-6.3,0-10.33-3.55-10.33-10.47v-14.45h2.37v14.26c0,5.59,2.99,8.53,8.15,8.53,5.59,0,9.05-3.75,9.05-9.62v-13.17h2.37Z"/>
    <path class="st22" d="M724.41,582.94c0-1.09.86-1.94,1.94-1.94s1.99.85,1.99,1.94-.86,1.94-1.99,1.94-1.94-.9-1.94-1.94ZM724.98,551.52h2.75l-.47,23.65h-1.8l-.47-23.65Z"/>
  </g>
</svg>